:FULLY-SPECIFIED
:FORCE-ALL-JOINTS-BE-3DOF
:DEGREES
2344
root -0.892068 14.1144 -19.3656 -176.943 57.2133 174.233
lfemur -9.33148 7.04091 -7.73854
ltibia 52.0662 -0 0
lfoot -14.6164 30.9523 -0.489527
ltoes -24.5891 0 0
rfemur -57.896 -10.7234 15.6392
rtibia 78.4453 -0 0
rfoot -16.331 -4.50876 1.25204
rtoes -7.87228 0 0
lowerback 13.394 3.75202 -6.40939
upperback -2.03826 3.82209 -0.405769
thorax -9.95658 2.13192 2.24425
lowerneck -4.02018 -4.86698 -5.50345
upperneck 6.5328 -6.37519 2.69267
head 3.52321 -3.26464 1.45073
lclavicle -2.70585e-14 -1.45279e-14 2.36893e-30
lhumerus -37.8432 -15.2503 89.3769
lradius 106.009 -0 0
lwrist 52.4585 0 0
lhand -34.5141 60.4908 0.371917
lfingers 7.12502 -0 0
lthumb -7.65525 90.4061 0.426631
rclavicle -2.70585e-14 -1.45279e-14 2.36893e-30
rhumerus 26.8868 26.4584 -56.7946
rradius 60.5004 -0 0
rwrist -2.47125 0 0
rhand -8.63086 -30.9734 0.945136
rfingers 7.12502 -0 0
rthumb 17.2838 -59.9973 0.985308
2345
root -0.893811 14.1353 -19.4583 -177.207 60.291 174.184
lfemur -10.3373 7.25071 -7.60952
ltibia 52.9102 -0 0
lfoot -14.335 30.7471 -0.494475
ltoes -23.7181 0 0
rfemur -57.3127 -10.297 15.8222
rtibia 78.4229 -0 0
rfoot -16.615 -5.18114 1.25482
rtoes -8.38841 0 0
lowerback 13.4975 3.77871 -6.16758
upperback -2.03293 3.89615 -0.372192
thorax -10.0002 2.15578 2.12252
lowerneck -4.17076 -4.61424 -5.28323
upperneck 6.58347 -6.02245 2.4486
head 3.54082 -3.09177 1.35348
lclavicle -2.58703e-14 -1.46318e-14 2.35166e-30
lhumerus -36.703 -14.914 88.824
lradius 106.167 -0 0
lwrist 51.829 0 0
lhand -34.8554 60.5166 0.38827
lfingers 7.12502 -0 0
lthumb -7.98409 90.428 0.444466
rclavicle -2.58703e-14 -1.46318e-14 2.35166e-30
rhumerus 25.9101 27.7145 -57.1716
rradius 62.0775 -0 0
rwrist -3.71238 0 0
rhand -8.23832 -30.5595 0.942677
rfingers 7.12502 -0 0
rthumb 17.6619 -59.5519 0.982983
2346
root -0.89533 14.1563 -19.5513 -177.505 63.3617 174.098
lfemur -11.3473 7.46278 -7.48448
ltibia 53.7581 -0 0
lfoot -14.0535 30.5412 -0.498398
ltoes -22.8454 0 0
rfemur -56.7274 -9.87186 16.0092
rtibia 78.3992 -0 0
rfoot -16.8986 -5.85467 1.25435
rtoes -8.90528 0 0
lowerback 13.6014 3.80478 -5.92509
upperback -2.02756 3.97005 -0.338448
thorax -10.0439 2.17944 2.00062
lowerneck -4.32029 -4.36081 -5.06363
upperneck 6.63252 -5.66935 2.20497
head 3.55815 -2.91879 1.25629
lclavicle -2.4671e-14 -1.47321e-14 2.33056e-30
lhumerus -35.5652 -14.5677 88.2783
lradius 106.324 -0 0
lwrist 51.1984 0 0
lhand -35.1945 60.5416 0.404468
lfingers 7.12502 -0 0
lthumb -8.31082 90.4488 0.46208
rclavicle -2.4671e-14 -1.47321e-14 2.33056e-30
rhumerus 24.9082 28.9656 -57.5798
rradius 63.659 -0 0
rwrist -4.95544 0 0
rhand -7.84613 -30.1454 0.937527
rfingers 7.12502 -0 0
rthumb 18.0397 -59.1062 0.977864
2347
root -0.896608 14.1774 -19.6448 -177.847 66.4215 173.964
lfemur -12.3609 7.67687 -7.3636
ltibia 54.6093 -0 0
lfoot -13.772 30.3348 -0.501284
ltoes -21.9718 0 0
rfemur -56.1403 -9.44839 16.1999
rtibia 78.3742 -0 0
rfoot -17.1815 -6.52871 1.25064
rtoes -9.4224 0 0
lowerback 13.7056 3.83018 -5.6821
upperback -2.02215 4.04373 -0.304548
thorax -10.0877 2.20289 1.87865
lowerneck -4.4686 -4.10697 -4.84487
upperneck 6.67988 -5.31627 1.96199
head 3.57519 -2.74589 1.15925
lclavicle -2.34619e-14 -1.48288e-14 2.3058e-30
lhumerus -34.4308 -14.212 87.7404
lradius 106.482 -0 0
lwrist 50.5675 0 0
lhand -35.531 60.5656 0.420458
lfingers 7.12502 -0 0
lthumb -8.63507 90.4685 0.479416
rclavicle -2.34619e-14 -1.48288e-14 2.3058e-30
rhumerus 23.8801 30.2099 -58.0201
rradius 65.2437 -0 0
rwrist -6.1993 0 0
rhand -7.45475 -29.7314 0.929706
rfingers 7.12502 -0 0
rthumb 18.4167 -58.6606 0.969973
2348
root -0.897624 14.1984 -19.7385 -178.255 69.4664 173.761
lfemur -13.3773 7.89275 -7.24704
ltibia 55.4632 -0 0
lfoot -13.491 30.1281 -0.503125
ltoes -21.0981 0 0
rfemur -55.5519 -9.02705 16.3941
rtibia 78.3477 -0 0
rfoot -17.4632 -7.20263 1.24369
rtoes -9.93925 0 0
lowerback 13.8101 3.85488 -5.43883
upperback -2.01669 4.11711 -0.270504
thorax -10.1316 2.22609 1.75673
lowerneck -4.61556 -3.85297 -4.62716
upperneck 6.7255 -4.96356 1.7199
head 3.59191 -2.57324 1.06248
lclavicle -2.22442e-14 -1.49222e-14 2.27752e-30
lhumerus -33.3006 -13.8475 87.2111
lradius 106.64 -0 0
lwrist 49.9368 0 0
lhand -35.8645 60.5885 0.436188
lfingers 7.12502 -0 0
lthumb -8.95647 90.487 0.496419
rclavicle -2.22442e-14 -1.49222e-14 2.27752e-30
rhumerus 22.8248 31.4456 -58.4938
rradius 66.8301 -0 0
rwrist -7.44281 0 0
rhand -7.06464 -29.3179 0.919249
rfingers 7.12502 -0 0
rthumb 18.7924 -58.2156 0.959342
2349
root -0.89836 14.2194 -19.8324 -178.764 72.4924 173.455
lfemur -14.3957 8.11016 -7.13497
ltibia 56.3192 -0 0
lfoot -13.2107 29.9213 -0.503918
ltoes -20.2251 0 0
rfemur -54.9627 -8.60825 16.5917
rtibia 78.3198 -0 0
rfoot -17.7435 -7.87581 1.23356
rtoes -10.4553 0 0
lowerback 13.9147 3.87884 -5.19545
upperback -2.01116 4.19011 -0.236327
thorax -10.1756 2.24902 1.635
lowerneck -4.76101 -3.59908 -4.41071
upperneck 6.76936 -4.61158 1.47892
head 3.6083 -2.40101 0.966051
lclavicle -2.10191e-14 -1.50121e-14 2.2459e-30
lhumerus -32.1757 -13.475 86.691
lradius 106.798 -0 0
lwrist 49.307 0 0
lhand -36.1947 60.6104 0.451602
lfingers 7.12502 -0 0
lthumb -9.27466 90.5041 0.513027
rclavicle -2.10191e-14 -1.50121e-14 2.2459e-30
rhumerus 21.7411 32.6708 -59.002
rradius 68.4171 -0 0
rwrist -8.68484 0 0
rhand -6.67624 -28.9054 0.906198
rfingers 7.12502 -0 0
rthumb 19.1665 -57.7716 0.946017
2350
root -0.898798 14.2404 -19.9264 -179.432 75.495 172.985
lfemur -15.4154 8.32884 -7.02753
ltibia 57.1766 -0 0
lfoot -12.9313 29.7145 -0.503663
ltoes -19.3536 0 0
rfemur -54.3732 -8.19243 16.7923
rtibia 78.2903 -0 0
rfoot -18.0219 -8.54761 1.22028
rtoes -10.9701 0 0
lowerback 14.0195 3.90203 -4.95216
upperback -2.00558 4.26265 -0.20203
thorax -10.2195 2.27165 1.51356
lowerneck -4.90481 -3.34556 -4.19571
upperneck 6.81139 -4.26069 1.23926
head 3.62434 -2.22938 0.870078
lclavicle -1.97879e-14 -1.50988e-14 2.21111e-30
lhumerus -31.057 -13.0951 86.1807
lradius 106.956 -0 0
lwrist 48.6789 0 0
lhand -36.5212 60.6309 0.466645
lfingers 7.12502 -0 0
lthumb -9.58928 90.5199 0.529181
rclavicle -1.97879e-14 -1.50988e-14 2.21111e-30
rhumerus 20.6281 33.8835 -59.5459
rradius 70.0031 -0 0
rwrist -9.92427 0 0
rhand -6.29003 -28.4943 0.890611
rfingers 7.12502 -0 0
rthumb 19.5384 -57.3291 0.930056
2351
root -0.898917 14.2614 -20.0205 179.616 78.4696 172.23
lfemur -16.4355 8.54852 -6.92486
ltibia 58.035 -0 0
lfoot -12.6532 29.508 -0.502364
ltoes -18.4845 0 0
rfemur -53.7838 -7.77998 16.9959
rtibia 78.2593 -0 0
rfoot -18.2981 -9.2174 1.20392
rtoes -11.4831 0 0
lowerback 14.1242 3.92442 -4.70917
upperback -1.99993 4.33467 -0.167624
thorax -10.2634 2.29396 1.39253
lowerneck -5.04683 -3.09268 -3.98236
upperneck 6.85159 -3.91127 1.00116
head 3.64002 -2.05852 0.774653
lclavicle -1.85516e-14 -1.51822e-14 2.1733e-30
lhumerus -29.9454 -12.7085 85.6806
lradius 107.114 -0 0
lwrist 48.0531 0 0
lhand -36.8435 60.6502 0.481259
lfingers 7.12502 -0 0
lthumb -9.89995 90.5341 0.544821
rclavicle -1.85516e-14 -1.51822e-14 2.1733e-30
rhumerus 19.4847 35.0819 -60.1266
rradius 71.587 -0 0
rwrist -11.1599 0 0
rhand -5.90644 -28.0851 0.872557
rfingers 7.12502 -0 0
rthumb 19.9079 -56.8885 0.91153
